<?xml version="1.0" standalone="no"?>
<!DOCTYPE svg PUBLIC "-//W3C//DTD SVG 20010904//EN"
 "http://www.w3.org/TR/2001/REC-SVG-20010904/DTD/svg10.dtd">
<svg version="1.0" xmlns="http://www.w3.org/2000/svg"
 width="1300.000000pt" height="1300.000000pt" viewBox="0 0 1300.000000 1300.000000"
 preserveAspectRatio="xMidYMid meet">
<metadata>
Created by potrace 1.14, written by Peter Selinger 2001-2017
</metadata>
<g transform="translate(0.000000,1300.000000) scale(0.100000,-0.100000)"
fill="#000000" stroke="none">
<path d="M6442 11544 c-17 -8 -132 -120 -132 -129 0 -3 -22 -29 -50 -57 -27
-27 -52 -57 -55 -66 -2 -10 -18 -26 -34 -37 -17 -11 -36 -31 -43 -45 -7 -13
-40 -53 -73 -87 -33 -34 -82 -88 -110 -119 -27 -31 -69 -76 -93 -101 -43 -46
-68 -82 -64 -95 1 -5 -4 -8 -12 -8 -8 0 -27 -16 -42 -36 -16 -20 -50 -58 -76
-84 -27 -26 -48 -51 -48 -55 0 -4 -20 -28 -44 -54 -100 -103 -146 -155 -146
-163 0 -5 -24 -31 -52 -59 -29 -27 -53 -53 -53 -57 0 -4 -19 -27 -43 -52 -139
-148 -163 -175 -183 -204 -12 -18 -35 -42 -50 -52 -15 -10 -32 -26 -36 -36 -9
-20 -80 -103 -140 -164 -24 -24 -43 -47 -43 -51 0 -5 -25 -32 -55 -61 -30 -29
-55 -57 -55 -61 0 -8 -66 -81 -145 -161 -25 -25 -45 -49 -45 -54 0 -4 -22 -30
-49 -56 -27 -26 -52 -57 -56 -69 -3 -12 -10 -21 -14 -21 -10 0 -81 -71 -81
-81 0 -4 -21 -29 -47 -56 -27 -27 -68 -73 -93 -102 -25 -28 -71 -79 -102 -113
-32 -33 -58 -64 -58 -68 0 -3 -12 -18 -27 -31 -16 -14 -41 -42 -58 -63 -16
-21 -41 -50 -53 -64 -18 -19 -22 -32 -18 -55 3 -17 9 -33 12 -36 7 -8 5241 -8
5248 0 3 3 9 19 12 36 4 23 0 36 -18 55 -12 14 -36 43 -53 64 -16 21 -42 49
-57 63 -16 13 -28 28 -28 32 0 4 -21 29 -47 56 -27 27 -73 78 -103 113 -30 35
-76 86 -103 113 -26 27 -55 62 -63 76 -9 15 -29 36 -45 47 -16 10 -32 27 -35
37 -3 9 -27 41 -54 70 -27 28 -69 75 -94 102 -25 28 -68 74 -96 104 -27 30
-50 57 -50 61 0 4 -26 34 -57 67 -32 33 -75 80 -96 104 -21 24 -60 69 -87 99
-28 30 -53 62 -56 72 -3 10 -9 18 -13 18 -14 0 -81 73 -81 89 0 14 -2 14 -10
1 -8 -13 -10 -13 -10 1 0 9 -24 42 -52 73 -29 30 -73 78 -98 107 -25 28 -69
76 -97 106 -29 29 -53 57 -53 62 0 7 -48 61 -146 162 -24 26 -44 50 -44 54 0
4 -21 29 -47 56 -68 69 -135 144 -146 165 -5 9 -29 35 -53 57 -24 23 -44 44
-44 48 0 7 -77 92 -165 183 -27 28 -56 62 -63 76 -7 14 -26 34 -43 45 -16 11
-32 27 -34 37 -3 9 -28 39 -55 66 -28 28 -50 54 -50 57 0 4 -28 35 -62 68 -60
58 -65 61 -118 64 -30 1 -61 0 -68 -3z m-294 -1295 c6 -1 12 -6 12 -10 0 -4
16 -13 35 -19 19 -6 35 -16 35 -21 0 -5 6 -9 13 -9 18 0 87 -69 87 -87 0 -7 4
-13 10 -13 5 0 15 -19 21 -42 7 -24 16 -47 21 -52 11 -13 10 -136 -1 -136 -5
0 -14 -22 -21 -49 -6 -27 -18 -52 -26 -55 -8 -3 -14 -12 -14 -20 0 -9 -11 -22
-23 -31 -13 -8 -30 -26 -37 -40 -7 -14 -19 -25 -27 -25 -7 0 -13 -6 -13 -14 0
-15 -54 -71 -68 -71 -4 0 -28 -21 -53 -47 -25 -27 -50 -48 -55 -48 -5 0 -24
-16 -41 -35 -18 -19 -35 -35 -39 -35 -4 0 -25 -15 -48 -34 -48 -39 -80 -66
-119 -98 -15 -13 -38 -33 -51 -45 -13 -13 -28 -23 -35 -23 -6 0 -11 -4 -11
-10 0 -6 125 -10 355 -10 l356 0 -3 -82 -3 -83 -542 -3 c-431 -2 -543 0 -543
10 0 56 22 133 41 147 13 9 35 28 50 44 15 15 32 27 38 27 6 0 16 9 23 20 7
11 17 20 23 20 11 0 62 41 105 85 14 14 31 25 38 25 6 0 16 9 22 20 6 11 17
20 25 20 8 0 18 6 22 13 4 8 22 22 38 33 17 10 36 27 43 36 7 10 18 18 24 18
11 0 19 6 99 84 25 24 56 49 68 55 11 7 21 19 21 27 0 8 5 12 10 9 6 -3 10 -2
10 4 0 5 14 22 30 38 17 15 30 33 30 40 0 7 6 16 13 20 7 4 18 22 24 38 35 91
27 159 -23 212 -34 36 -37 37 -123 41 -105 5 -150 -7 -194 -53 -55 -56 -67
-75 -75 -113 l-8 -37 -117 -3 c-116 -3 -117 -2 -117 20 0 31 19 98 28 98 4 0
13 14 21 32 17 37 99 119 147 144 19 10 34 22 34 25 0 4 23 13 50 20 28 7 50
16 50 20 0 4 12 10 28 12 25 5 302 1 330 -4z m1110 -6 c4 -6 26 -16 48 -22 23
-6 45 -18 48 -26 3 -8 12 -15 19 -15 8 0 20 -7 27 -15 7 -9 15 -14 17 -11 7 7
83 -77 83 -91 0 -7 4 -13 10 -13 5 0 17 -15 26 -32 9 -18 21 -35 25 -38 5 -3
16 -37 26 -75 10 -39 21 -72 24 -75 4 -3 12 -52 19 -110 7 -58 16 -107 19
-110 9 -7 31 -191 31 -257 0 -62 -18 -153 -30 -153 -5 0 -11 -9 -15 -19 -5
-17 -50 -66 -105 -115 -8 -8 -34 -20 -57 -27 -24 -6 -43 -15 -43 -19 0 -12
-143 -30 -235 -30 -90 0 -235 18 -235 29 0 4 -27 15 -59 25 -33 10 -62 24 -65
32 -3 8 -12 14 -20 14 -7 0 -21 11 -30 25 -9 14 -21 23 -26 20 -6 -4 -14 5
-19 19 -6 13 -16 28 -23 33 -16 10 -38 49 -44 76 -2 11 -8 23 -13 26 -40 25
-42 673 -2 701 4 3 15 25 25 49 17 45 111 151 133 151 7 0 13 4 13 9 0 5 20
15 45 22 25 7 45 17 45 20 0 14 45 17 188 16 94 -2 145 -6 150 -14z"/>
<path d="M6993 10080 c-30 -12 -73 -51 -73 -66 0 -7 -8 -20 -17 -30 -16 -16
-18 -42 -15 -303 2 -173 6 -287 12 -289 6 -2 10 -16 10 -30 1 -40 26 -102 47
-117 10 -7 30 -24 46 -38 15 -15 43 -29 62 -33 19 -3 35 -10 35 -15 0 -5 36
-9 80 -9 44 0 80 4 80 8 0 4 20 13 45 20 31 8 49 19 55 35 5 12 9 18 9 12 1
-5 8 1 17 13 9 13 18 50 21 82 7 69 -27 460 -39 460 -4 0 -8 19 -8 43 0 59
-28 149 -51 165 -10 7 -19 20 -19 28 0 8 -4 14 -10 14 -5 0 -18 8 -28 18 -9 9
-30 23 -45 30 -32 14 -181 15 -214 2z"/>
<path d="M5830 11284 c0 -5 -22 -18 -50 -28 -27 -10 -50 -22 -50 -26 0 -5 -16
-14 -35 -21 -19 -7 -35 -16 -35 -19 0 -4 -19 -15 -42 -26 -24 -10 -49 -25 -57
-32 -13 -12 -45 -28 -63 -31 -5 0 -17 -10 -28 -21 -11 -11 -27 -20 -35 -20 -8
0 -15 -4 -15 -9 0 -5 -20 -17 -45 -28 -25 -10 -45 -21 -45 -24 0 -3 -19 -14
-42 -25 -24 -10 -51 -26 -61 -36 -11 -9 -30 -19 -44 -23 -14 -3 -34 -15 -46
-25 -11 -11 -27 -20 -34 -20 -7 0 -13 -4 -13 -8 0 -5 -20 -17 -45 -28 -25 -10
-45 -21 -45 -25 0 -3 -19 -14 -42 -25 -24 -10 -49 -24 -56 -31 -7 -7 -17 -13
-22 -13 -5 0 -15 -6 -22 -13 -7 -7 -32 -21 -55 -31 -24 -11 -43 -22 -43 -26 0
-4 -20 -15 -45 -26 -25 -10 -45 -21 -45 -25 0 -3 -20 -14 -45 -25 -25 -10 -45
-21 -45 -25 0 -4 -13 -12 -30 -18 -16 -5 -30 -14 -30 -19 0 -5 -18 -15 -41
-22 -23 -8 -43 -19 -46 -26 -4 -11 -52 -35 -76 -38 -4 -1 -11 -6 -15 -13 -4
-6 -19 -17 -32 -23 -14 -6 -47 -25 -75 -41 -27 -16 -69 -38 -92 -49 -24 -12
-43 -25 -43 -30 0 -4 -22 -16 -50 -25 -27 -9 -50 -21 -50 -26 0 -6 -13 -15
-30 -20 -16 -6 -30 -15 -30 -19 0 -5 -20 -16 -45 -26 -25 -9 -45 -20 -45 -25
0 -4 -20 -15 -44 -24 -25 -10 -47 -23 -50 -30 -2 -7 -18 -16 -35 -20 -17 -4
-31 -11 -31 -16 0 -6 -17 -17 -37 -26 -21 -8 -40 -19 -43 -23 -3 -4 -24 -15
-47 -25 -24 -11 -43 -22 -43 -25 0 -3 -20 -14 -45 -24 -25 -11 -45 -22 -45
-26 0 -4 -15 -14 -32 -21 -18 -7 -42 -21 -52 -31 -11 -10 -25 -18 -32 -18 -7
0 -19 -6 -26 -12 -7 -7 -25 -19 -40 -27 -15 -8 -25 -17 -23 -22 3 -4 -4 -5
-15 -2 -11 3 -20 1 -20 -4 0 -5 -16 -15 -35 -23 -19 -8 -35 -17 -35 -20 0 -4
-20 -15 -45 -26 -25 -10 -45 -21 -45 -25 0 -3 -18 -14 -40 -24 -22 -10 -40
-21 -40 -25 0 -3 -16 -12 -35 -19 -19 -7 -35 -16 -35 -20 0 -5 -20 -16 -45
-25 -25 -10 -45 -21 -45 -25 0 -4 -19 -16 -42 -26 -24 -10 -49 -25 -56 -32 -7
-7 -19 -13 -26 -13 -7 0 -21 -8 -32 -18 -10 -10 -34 -24 -51 -31 -18 -7 -33
-17 -33 -21 0 -4 -20 -15 -45 -26 -25 -10 -45 -21 -45 -25 0 -3 -20 -14 -45
-23 -25 -10 -45 -21 -45 -26 0 -5 -10 -12 -22 -16 -13 -4 -40 -21 -61 -37 -33
-27 -38 -36 -35 -66 2 -29 9 -39 33 -50 17 -8 32 -17 35 -21 3 -3 21 -12 40
-20 19 -8 37 -17 40 -20 3 -4 29 -15 58 -24 28 -10 52 -21 52 -24 0 -4 27 -15
60 -26 33 -10 60 -22 60 -26 0 -4 20 -13 45 -20 25 -7 45 -16 45 -21 0 -4 25
-15 55 -24 30 -8 55 -19 55 -23 0 -4 27 -16 60 -26 33 -11 60 -22 60 -26 0 -3
25 -14 55 -25 30 -10 55 -21 55 -25 0 -4 20 -13 45 -20 25 -7 45 -16 45 -21 0
-4 25 -15 55 -24 30 -8 55 -19 55 -23 0 -14 109 -42 163 -42 88 0 121 15 191
86 36 36 68 73 71 82 2 10 18 26 34 36 16 11 37 33 46 49 10 16 36 48 59 70
22 22 41 43 41 46 0 4 24 31 53 59 28 29 52 58 52 63 0 6 5 7 10 4 6 -3 10 0
10 8 0 7 19 31 43 53 23 21 49 50 58 64 16 24 63 76 149 167 22 22 40 45 40
49 0 4 23 30 51 56 28 26 48 48 45 48 -4 0 16 23 43 51 28 29 51 55 51 59 0 4
25 33 55 63 30 30 55 57 55 60 0 3 20 27 45 54 56 60 117 129 150 168 14 17
40 45 58 64 18 18 32 36 32 40 1 6 20 27 155 168 33 34 60 66 60 70 0 5 20 28
45 51 25 23 45 46 45 50 0 5 10 17 23 28 12 11 36 37 52 59 17 21 51 60 78 86
26 26 47 50 47 55 0 4 20 26 45 50 25 23 45 46 45 51 0 5 18 25 39 45 21 19
47 48 57 64 11 16 39 48 64 72 25 23 45 46 45 50 0 4 20 28 45 53 56 57 119
129 130 150 5 8 5 22 -1 30 -5 7 -9 9 -9 3z m-2022 -1446 c7 -7 12 -31 12 -55
0 -51 -19 -143 -29 -143 -4 0 -16 -36 -26 -80 -10 -44 -21 -80 -25 -80 -4 0
-13 -21 -20 -47 -8 -27 -17 -50 -20 -53 -4 -3 -15 -35 -25 -72 -10 -38 -22
-68 -26 -68 -5 0 -9 -5 -9 -10 0 -7 6 -7 20 0 11 6 20 15 20 21 0 6 29 39 65
74 36 34 65 66 65 71 0 5 29 37 65 72 36 34 65 66 65 71 0 4 12 19 28 33 28
25 132 142 144 161 4 7 12 4 23 -6 9 -10 23 -17 31 -17 22 0 17 -9 -25 -52
-22 -21 -52 -55 -68 -74 -15 -20 -53 -62 -83 -94 -30 -32 -84 -90 -120 -129
-36 -39 -94 -102 -130 -140 -36 -38 -78 -86 -95 -107 -16 -21 -41 -47 -54 -59
-38 -32 -71 -69 -71 -79 0 -12 -32 -35 -50 -36 -37 0 -43 15 -30 69 6 28 16
51 20 51 4 0 13 24 20 53 7 28 18 62 26 74 7 12 21 51 30 87 9 36 20 66 24 66
4 0 12 25 19 55 7 30 16 55 20 55 10 0 31 102 31 152 0 31 -4 40 -22 47 -25 9
-81 -3 -86 -19 -2 -6 -9 -10 -15 -10 -7 0 -27 -16 -46 -35 -19 -19 -40 -35
-47 -35 -8 0 -14 -6 -14 -13 0 -6 -13 -25 -29 -40 -17 -15 -33 -36 -36 -47 -4
-11 -10 -20 -15 -20 -17 0 -41 -83 -35 -121 6 -32 3 -41 -19 -60 -14 -13 -26
-26 -26 -30 0 -4 -28 -35 -62 -68 -60 -60 -61 -61 -80 -42 -18 20 -26 81 -10
81 4 0 14 20 21 45 7 25 16 45 21 45 4 0 13 18 20 41 8 22 22 45 32 50 10 5
18 16 18 23 0 8 7 19 15 26 8 7 13 15 11 19 -3 4 9 16 25 26 16 11 31 27 34
36 3 9 26 37 51 63 41 41 45 48 33 64 -13 15 -12 16 3 3 16 -12 24 -7 70 38
28 28 57 51 62 51 6 0 20 13 30 29 11 15 39 36 63 46 23 10 43 21 43 25 0 24
146 40 168 18z"/>
<path d="M7157 11277 c-8 -21 12 -48 116 -157 31 -34 57 -64 57 -68 0 -4 21
-28 48 -53 26 -24 55 -57 66 -73 10 -16 36 -45 57 -64 21 -20 39 -40 39 -45 0
-5 20 -28 45 -51 25 -24 45 -46 45 -50 0 -5 21 -29 48 -55 26 -26 61 -65 77
-86 17 -22 40 -48 53 -59 12 -11 22 -23 22 -28 0 -4 20 -27 45 -50 25 -23 45
-46 45 -51 0 -5 23 -30 50 -57 28 -27 50 -53 50 -60 0 -6 5 -8 10 -5 6 3 10 1
10 -4 0 -6 18 -30 40 -53 22 -24 40 -49 40 -55 0 -7 4 -13 9 -13 8 0 51 -42
96 -95 33 -39 94 -108 150 -168 25 -27 45 -51 45 -54 0 -3 25 -30 55 -60 30
-30 55 -59 55 -63 0 -5 20 -28 45 -52 24 -24 45 -47 45 -51 0 -4 21 -30 48
-57 26 -27 68 -73 94 -102 26 -29 70 -78 98 -108 27 -30 50 -57 50 -61 0 -3
24 -31 53 -61 119 -126 172 -183 172 -189 0 -4 19 -24 41 -46 23 -22 49 -54
59 -70 9 -16 30 -38 46 -49 16 -10 32 -26 34 -36 11 -34 135 -147 173 -158 77
-21 221 -2 259 35 6 7 32 18 57 25 25 7 46 16 46 20 0 4 20 13 45 20 25 7 45
16 45 20 0 4 25 15 55 25 30 9 55 20 55 24 0 4 27 16 60 26 32 10 57 21 55 25
-3 4 22 15 55 24 33 9 60 21 60 25 0 5 20 15 44 22 25 7 43 16 41 19 -2 3 25
15 61 26 35 10 64 22 64 26 0 3 24 14 53 24 28 9 54 20 57 24 3 3 21 12 40 20
19 8 37 16 40 19 3 3 19 13 35 21 24 13 31 23 33 53 3 32 -1 39 -27 55 -17 10
-28 21 -25 24 3 3 -11 11 -30 18 -20 6 -36 15 -36 20 0 5 -20 16 -45 26 -25 9
-45 20 -45 25 0 4 -20 15 -45 25 -25 9 -45 20 -45 24 0 4 -15 14 -32 21 -18 7
-42 21 -52 31 -11 10 -25 18 -31 18 -7 0 -22 9 -34 20 -13 10 -38 24 -57 30
-19 7 -34 15 -34 20 0 5 -20 16 -44 25 -25 10 -47 23 -50 30 -2 7 -18 16 -35
20 -17 4 -31 10 -31 14 0 5 -18 16 -40 26 -22 10 -40 21 -40 24 0 4 -20 15
-45 25 -25 11 -45 22 -45 25 0 4 -17 14 -37 24 -58 27 -117 61 -131 75 -7 6
-19 12 -26 12 -7 0 -21 8 -32 18 -10 10 -34 24 -51 31 -18 7 -33 17 -33 21 0
4 -20 15 -45 24 -25 10 -45 21 -45 25 0 5 -20 16 -45 27 -25 10 -45 21 -45 24
0 3 -18 14 -40 24 -22 10 -40 21 -40 26 0 5 -13 11 -29 15 -16 3 -35 13 -42
21 -7 9 -30 23 -51 31 -21 8 -38 19 -38 23 0 4 -20 15 -45 24 -25 10 -45 21
-45 26 0 5 -15 14 -34 20 -19 6 -36 17 -39 24 -3 7 -23 18 -46 25 -23 6 -41
16 -41 21 0 5 -17 17 -37 25 -21 9 -44 22 -53 29 -8 7 -31 19 -50 26 -19 8
-39 20 -43 27 -4 7 -14 13 -22 13 -8 0 -22 8 -32 19 -10 10 -34 24 -55 30 -20
7 -38 18 -41 25 -3 6 -23 18 -46 26 -23 7 -41 17 -41 22 0 5 -13 14 -30 19
-16 6 -30 14 -30 18 0 4 -20 15 -45 25 -25 11 -45 22 -45 27 0 4 -20 15 -45
25 -25 9 -45 20 -45 24 0 4 -19 15 -42 26 -24 10 -47 24 -51 31 -5 8 -12 11
-16 9 -4 -3 -17 3 -27 13 -11 9 -38 26 -62 36 -23 10 -42 22 -42 25 0 3 -20
14 -45 24 -25 11 -45 23 -45 28 0 4 -6 8 -13 8 -7 0 -23 9 -34 20 -12 10 -32
22 -46 25 -14 4 -33 14 -44 23 -10 10 -37 26 -60 36 -24 11 -43 22 -43 26 0 3
-16 12 -35 19 -19 7 -41 18 -48 24 -17 16 -62 42 -114 66 -24 11 -43 24 -43
28 0 4 -20 16 -45 26 -25 11 -45 22 -45 26 0 4 -16 13 -35 20 -19 7 -35 16
-35 20 0 5 -21 16 -47 26 -27 10 -51 22 -54 27 -3 6 -9 3 -12 -5z m1845 -1196
c7 -14 32 -43 56 -65 23 -22 42 -46 42 -52 0 -7 5 -14 12 -16 11 -4 -29 -53
-44 -53 -3 0 -17 -10 -30 -23 -40 -40 -92 -82 -101 -82 -4 0 -25 -17 -46 -37
-76 -74 -131 -114 -131 -93 0 5 -11 20 -25 32 -14 12 -25 26 -25 31 0 5 -13
22 -30 39 -34 34 -36 42 -14 60 9 7 27 23 40 36 14 12 29 22 34 22 5 0 15 8
22 18 7 10 26 27 43 38 34 22 48 33 99 81 35 33 45 53 26 53 -20 0 -33 41 -20
66 l13 23 33 -27 c18 -14 39 -37 46 -51z m73 -401 c24 -11 67 -25 95 -32 27
-6 50 -15 50 -19 0 -4 24 -13 53 -19 28 -7 54 -16 57 -20 3 -3 35 -14 73 -24
37 -10 67 -21 67 -25 0 -4 34 -15 75 -26 41 -10 75 -22 75 -27 0 -4 6 -8 13
-8 17 0 64 -45 72 -69 3 -10 17 -26 30 -35 14 -9 25 -21 25 -27 0 -6 10 -19
22 -29 19 -15 20 -20 9 -34 -7 -9 -17 -16 -22 -16 -5 0 -18 -8 -29 -17 -11
-10 -29 -26 -39 -35 -11 -9 -32 -25 -48 -35 -15 -10 -34 -26 -41 -35 -7 -10
-18 -18 -24 -18 -6 0 -21 -11 -34 -25 -13 -14 -19 -25 -15 -25 4 0 16 -15 26
-33 10 -19 31 -42 46 -53 35 -23 36 -40 7 -66 -27 -23 -35 -20 -56 16 -18 30
-81 96 -91 96 -3 0 -16 -11 -28 -24 -43 -45 -75 -37 -117 29 -11 17 -28 36
-38 43 -10 7 -18 19 -18 26 0 8 -7 16 -15 20 -22 8 -8 32 26 46 42 18 55 46
29 62 -11 7 -20 17 -20 23 0 11 -41 62 -85 105 -14 14 -25 30 -25 35 0 6 -14
23 -30 39 -17 16 -30 34 -30 40 0 6 -13 20 -29 30 -15 11 -36 34 -46 53 -10
18 -22 33 -27 33 -5 0 -13 11 -18 25 -5 14 -16 28 -24 31 -12 5 -12 8 2 25 21
24 42 24 97 -1z"/>
<path d="M9183 9512 c10 -10 17 -24 17 -31 0 -7 4 -10 8 -7 5 3 16 -8 26 -25
9 -16 21 -29 27 -29 5 0 9 -6 9 -13 0 -7 12 -24 28 -38 15 -14 40 -42 56 -62
16 -20 33 -37 37 -37 4 0 20 11 35 25 15 14 30 25 33 25 4 0 21 14 39 30 18
17 37 30 43 30 23 0 6 28 -21 33 -16 4 -49 15 -72 26 -24 10 -60 22 -81 26
-21 4 -43 13 -50 19 -10 10 -123 46 -143 46 -4 0 0 -8 9 -18z"/>
<path d="M2057 8913 c-10 -3 -22 -16 -28 -29 -10 -28 -13 -4254 -3 -4254 17 0
42 45 53 95 7 30 16 53 20 50 5 -2 14 22 21 55 7 33 16 60 19 60 4 0 15 32 25
70 10 39 22 70 26 70 3 0 15 34 25 75 11 41 22 75 25 75 3 0 12 23 19 50 7 28
16 50 20 50 4 0 15 34 25 75 10 41 21 75 26 75 4 0 16 32 25 70 9 39 20 70 24
70 4 0 15 32 25 70 10 39 21 70 25 70 5 0 14 27 21 60 7 33 16 60 20 60 4 0
16 32 26 70 10 39 21 70 25 70 4 0 16 36 26 79 9 44 21 78 24 75 4 -2 13 18
20 46 7 27 16 50 19 50 3 0 14 34 25 75 10 41 22 75 25 75 4 0 16 32 26 70 10
39 21 70 26 70 4 0 8 8 8 18 0 20 32 115 41 122 4 3 12 31 19 63 7 31 17 57
21 57 4 0 15 32 25 70 10 39 21 70 25 70 4 0 15 32 24 70 9 39 21 70 25 70 4
0 14 24 20 53 7 28 16 54 20 57 3 3 14 35 24 73 10 37 21 67 25 67 4 0 15 33
25 73 10 39 22 74 25 77 4 3 15 35 25 73 10 37 22 67 26 67 4 0 13 27 20 60 7
33 16 58 20 55 4 -2 15 29 25 70 11 41 22 75 26 75 4 0 15 32 24 70 9 39 21
70 25 70 4 0 14 24 20 53 7 28 16 54 21 57 4 3 16 37 26 75 10 39 21 72 25 73
12 5 9 82 -2 82 -5 0 -10 7 -10 15 0 36 -52 94 -83 95 -10 0 -16 4 -13 8 3 5
-22 17 -54 28 -33 10 -60 22 -60 25 0 3 -26 14 -57 25 -32 10 -63 24 -70 30
-7 6 -32 18 -57 25 -26 7 -46 16 -46 20 0 3 -18 12 -40 19 -22 7 -40 16 -40
19 0 3 -27 15 -60 25 -33 11 -60 22 -60 26 0 4 -26 15 -57 26 -32 10 -64 25
-71 32 -7 6 -20 12 -27 12 -7 0 -20 6 -27 13 -7 7 -41 21 -75 32 -35 11 -63
23 -63 27 0 4 -25 15 -55 24 -30 10 -53 20 -50 22 3 3 -19 13 -48 23 -50 18
-102 22 -140 12z m450 -439 c24 -9 43 -20 43 -24 0 -4 18 -13 40 -20 22 -7 40
-17 40 -21 0 -4 23 -15 50 -25 28 -10 50 -21 50 -24 0 -4 11 -12 25 -18 21
-10 24 -16 18 -44 -3 -18 -10 -34 -15 -36 -4 -2 -8 -11 -8 -20 -1 -19 -39
-103 -40 -87 0 6 -10 -6 -22 -25 -13 -19 -28 -41 -35 -48 -7 -8 -18 -23 -25
-35 -6 -12 -22 -30 -35 -40 -13 -10 -20 -24 -16 -30 3 -7 2 -9 -2 -4 -5 4 -17
-5 -27 -20 -17 -28 -42 -60 -85 -111 -13 -15 -23 -33 -23 -39 0 -7 -5 -13 -10
-13 -6 0 -18 -16 -27 -35 -9 -19 -20 -32 -24 -30 -4 3 -15 -18 -25 -45 -10
-28 -21 -50 -25 -50 -4 0 -14 -40 -23 -89 -12 -65 -14 -100 -7 -131 12 -55 22
-64 63 -56 25 4 37 14 47 38 8 18 20 39 27 46 7 7 16 28 20 47 4 25 11 35 25
35 11 0 19 -4 19 -10 0 -5 6 -10 13 -10 32 -1 38 -15 25 -63 -7 -26 -16 -47
-20 -47 -4 0 -8 -7 -8 -15 0 -16 -24 -68 -41 -89 -66 -83 -77 -91 -133 -91
-48 0 -59 4 -86 31 -22 23 -33 48 -41 90 -19 98 5 319 38 352 7 7 13 22 13 32
0 10 6 25 13 32 7 7 21 32 31 56 11 23 23 42 27 42 4 0 10 8 13 18 3 9 19 33
36 52 16 19 30 39 30 44 0 5 7 16 15 25 43 47 85 97 85 103 0 4 10 18 23 31
42 45 67 79 67 88 0 6 4 8 9 5 8 -5 21 15 21 33 0 4 -18 13 -40 20 -22 6 -40
16 -40 21 0 4 -16 14 -35 20 -19 6 -35 15 -35 19 0 5 -15 12 -32 18 -28 8 -33
14 -31 38 1 15 6 31 11 34 5 3 13 25 17 49 4 23 10 42 13 42 4 0 26 -7 49 -16z
m463 -245 c0 -20 -23 -114 -29 -119 -4 -3 -13 -31 -20 -62 -7 -32 -16 -58 -19
-58 -4 0 -16 -38 -26 -85 -10 -47 -22 -85 -25 -85 -4 0 -15 -36 -25 -80 -10
-44 -22 -80 -25 -80 -4 0 -13 -29 -20 -65 -7 -36 -16 -65 -21 -65 -4 0 -15
-38 -25 -85 -10 -47 -21 -85 -26 -85 -11 0 -31 -103 -24 -122 4 -9 16 -18 27
-21 14 -4 19 -11 14 -22 -3 -9 -6 -28 -6 -41 0 -14 -4 -23 -9 -20 -5 4 -12
-12 -16 -35 l-7 -41 -45 6 c-25 3 -53 6 -62 6 -36 1 -42 13 -30 73 7 31 15 57
19 57 4 0 13 29 20 65 7 36 15 65 19 65 4 0 16 35 26 78 9 42 21 79 24 82 4 3
16 42 26 88 10 45 21 82 25 82 3 0 15 38 25 85 11 47 23 85 26 85 4 0 12 29
19 65 7 36 16 65 20 65 4 0 15 38 25 85 10 47 21 85 25 85 4 0 15 33 24 73
l18 74 39 -20 c21 -10 39 -23 39 -28z"/>
<path d="M10800 8902 c-25 -9 -51 -23 -58 -29 -7 -7 -17 -13 -22 -13 -5 0 -39
-14 -76 -31 -37 -16 -80 -33 -95 -36 -16 -3 -29 -9 -29 -14 0 -4 -18 -14 -40
-20 -22 -7 -38 -14 -35 -17 3 -3 -21 -14 -53 -25 -31 -10 -59 -22 -62 -26 -3
-4 -30 -16 -60 -27 -30 -10 -57 -21 -60 -24 -3 -4 -21 -12 -40 -20 -19 -8 -37
-17 -40 -20 -3 -4 -29 -15 -57 -24 -29 -10 -53 -21 -53 -24 0 -4 -29 -16 -65
-27 -36 -10 -65 -22 -65 -25 0 -4 -25 -15 -55 -25 -30 -11 -55 -22 -55 -26 0
-4 -13 -12 -28 -18 -29 -12 -62 -57 -62 -85 0 -9 -4 -16 -10 -16 -5 0 -10 -20
-10 -45 0 -25 4 -45 8 -45 4 0 16 -31 27 -70 11 -38 22 -70 25 -70 4 0 12 -25
19 -55 7 -30 16 -55 21 -55 4 0 16 -31 25 -70 9 -38 20 -70 24 -70 4 0 13 -23
19 -50 7 -28 20 -70 31 -93 11 -23 22 -59 26 -79 4 -21 10 -38 14 -38 4 0 15
-31 26 -70 11 -38 22 -70 25 -70 4 0 15 -34 25 -75 11 -41 22 -75 26 -75 4 0
15 -30 25 -67 10 -38 21 -70 24 -73 4 -3 13 -29 20 -57 6 -29 16 -53 20 -53 4
0 16 -31 25 -70 9 -38 20 -70 24 -70 4 0 15 -31 25 -70 10 -38 21 -70 25 -70
5 0 14 -27 21 -60 7 -33 16 -60 20 -60 4 0 16 -30 26 -67 10 -38 21 -70 24
-73 4 -3 15 -35 25 -72 10 -38 22 -68 26 -68 5 0 9 -8 9 -17 0 -19 23 -93 40
-128 5 -11 14 -39 20 -62 6 -24 14 -43 19 -43 4 0 15 -34 25 -75 10 -41 21
-75 25 -75 4 0 15 -31 25 -70 10 -38 22 -70 26 -70 4 0 13 -27 20 -60 7 -33
16 -60 21 -60 4 0 15 -31 25 -70 10 -38 21 -70 25 -70 4 0 15 -31 24 -70 9
-38 21 -70 25 -70 5 0 16 -34 26 -75 10 -41 21 -75 25 -75 4 0 13 -22 20 -50
7 -27 16 -50 19 -50 3 0 14 -34 25 -75 10 -41 22 -75 25 -75 4 0 16 -31 26
-70 10 -38 21 -70 25 -70 3 0 12 -27 19 -60 7 -33 16 -58 20 -55 4 2 13 -20
20 -51 12 -50 37 -94 54 -94 3 0 5 958 4 2130 -2 1654 -6 2132 -15 2141 -19
19 -113 20 -163 1z m-514 -510 c17 -10 46 -83 40 -99 -3 -7 -14 -13 -25 -13
-11 0 -21 -5 -23 -10 -2 -6 -32 -17 -68 -26 -35 -8 -67 -19 -70 -23 -6 -11
-101 -31 -112 -25 -4 3 -8 12 -8 20 0 8 -4 14 -9 14 -12 0 -32 57 -25 74 3 7
38 20 79 30 41 10 75 21 77 25 2 4 30 15 63 23 75 20 68 19 81 10z m14 -271
c0 -5 12 -12 26 -15 15 -4 40 -20 56 -37 16 -16 35 -29 43 -29 7 0 15 -8 19
-17 6 -20 25 -51 43 -70 6 -7 17 -29 24 -48 7 -19 16 -35 21 -35 4 0 12 -19
19 -42 6 -24 14 -45 18 -48 9 -7 28 -67 37 -112 3 -21 9 -38 13 -38 4 0 15
-34 26 -75 10 -41 21 -75 25 -75 10 0 40 -155 40 -202 0 -21 5 -38 10 -38 6 0
10 -13 10 -29 0 -17 -4 -33 -10 -36 -5 -3 -10 -23 -10 -44 0 -45 -23 -115 -44
-137 -9 -8 -22 -25 -31 -37 -14 -20 -24 -22 -103 -22 l-87 0 -3 38 c-2 20 -7
37 -12 37 -4 0 -10 16 -12 35 l-4 35 58 0 c33 0 64 5 71 10 7 6 20 16 29 23
22 15 40 105 32 161 -13 100 -27 166 -35 166 -5 0 -9 9 -9 19 0 11 -4 23 -10
26 -5 3 -10 -3 -10 -14 0 -12 -4 -21 -10 -21 -5 0 -12 -11 -16 -24 -3 -13 -18
-34 -32 -47 -36 -32 -125 -34 -161 -4 -46 38 -111 115 -111 133 0 6 -4 12 -9
12 -5 0 -17 24 -27 53 -9 28 -20 54 -25 57 -9 6 -39 149 -39 190 0 16 -4 30
-10 30 -5 0 -10 20 -10 45 0 25 4 45 9 45 5 0 11 22 15 49 5 36 15 58 41 85
18 20 41 36 49 36 9 0 16 5 16 10 0 6 18 10 40 10 22 0 40 -4 40 -9z"/>
<path d="M10252 7958 c-12 -6 -25 -22 -29 -36 -9 -37 3 -196 16 -200 6 -2 11
-10 11 -17 0 -30 33 -111 51 -123 11 -7 19 -20 19 -28 0 -8 12 -19 28 -24 15
-6 35 -15 45 -20 11 -7 17 -7 17 0 0 5 8 10 18 10 9 1 28 10 42 21 22 19 25
29 25 85 0 36 -5 68 -11 72 -6 4 -18 33 -26 64 -9 32 -23 65 -32 73 -8 8 -18
24 -21 35 -7 22 -57 75 -85 90 -23 12 -39 12 -68 -2z"/>
<path d="M3839 8323 c-9 -2 -22 -15 -29 -28 -7 -14 -17 -25 -22 -25 -4 0 -8
-11 -8 -25 0 -14 4 -25 9 -25 5 0 12 -13 16 -29 3 -15 15 -38 25 -49 11 -11
22 -31 25 -45 4 -14 14 -33 24 -44 9 -10 23 -33 30 -50 7 -18 17 -33 21 -33 4
0 15 -21 25 -47 10 -27 24 -52 30 -58 7 -5 18 -26 25 -45 8 -19 20 -39 27 -43
7 -4 13 -14 13 -22 0 -7 6 -20 13 -27 6 -7 21 -31 32 -53 11 -22 22 -42 25
-45 3 -3 14 -24 25 -47 11 -24 23 -43 26 -43 3 0 14 -20 25 -45 10 -25 21 -45
25 -45 4 0 12 -13 18 -30 5 -16 14 -30 19 -30 5 0 15 -18 22 -41 8 -23 19 -43
26 -46 6 -2 17 -22 25 -45 7 -22 19 -42 25 -45 7 -3 18 -21 25 -41 6 -20 20
-45 30 -56 11 -11 19 -25 19 -32 0 -7 6 -19 13 -26 7 -7 22 -32 32 -55 10 -24
22 -43 25 -43 3 0 14 -20 24 -45 11 -25 22 -45 26 -45 3 0 12 -16 20 -35 8
-19 17 -35 21 -35 4 0 13 -16 19 -35 6 -19 17 -38 24 -42 6 -5 20 -27 30 -50
11 -24 22 -43 26 -43 3 0 12 -17 20 -37 7 -21 18 -42 25 -48 7 -5 18 -26 25
-45 8 -19 19 -39 25 -45 7 -5 18 -26 25 -45 8 -19 19 -39 25 -45 7 -5 18 -26
26 -45 7 -19 21 -42 31 -52 10 -10 18 -25 18 -33 0 -8 4 -15 8 -15 5 0 17 -20
28 -45 10 -25 21 -45 25 -45 3 0 14 -20 23 -45 10 -25 21 -45 26 -45 4 0 13
-13 19 -30 5 -16 14 -30 19 -30 5 0 15 -18 22 -41 8 -23 20 -43 26 -46 7 -3
20 -27 29 -54 9 -27 20 -47 25 -44 5 3 14 -11 20 -30 6 -19 15 -35 19 -35 4 0
15 -20 25 -45 11 -25 22 -45 25 -45 4 0 15 -20 25 -45 11 -25 22 -45 27 -45 4
0 15 -20 25 -45 9 -25 20 -45 23 -45 4 0 12 -13 18 -30 6 -17 19 -30 28 -30 9
0 14 -4 11 -9 -8 -12 8 -53 26 -72 7 -8 22 -33 32 -56 11 -24 22 -43 26 -43 3
0 12 -17 20 -37 7 -21 18 -42 25 -48 7 -5 18 -26 25 -45 8 -19 19 -39 25 -45
7 -5 18 -26 25 -45 8 -19 19 -38 26 -43 7 -4 18 -23 24 -42 6 -19 15 -35 19
-35 4 0 13 -16 21 -35 8 -19 17 -35 20 -35 4 0 15 -20 26 -45 10 -25 21 -45
25 -45 3 0 14 -20 25 -45 10 -25 21 -45 25 -45 4 0 12 -13 18 -30 5 -16 14
-30 19 -30 4 0 16 -22 26 -49 9 -27 23 -52 30 -54 7 -3 18 -23 25 -45 8 -23
19 -43 25 -45 7 -3 18 -23 26 -46 7 -23 17 -41 22 -41 5 0 14 -13 19 -30 6
-16 14 -30 18 -30 4 0 15 -20 25 -45 11 -25 22 -45 25 -45 4 0 15 -20 26 -45
11 -25 23 -45 28 -45 4 0 7 -6 7 -13 0 -7 8 -22 18 -33 10 -10 24 -35 32 -54
8 -19 25 -50 37 -69 13 -19 23 -40 23 -47 0 -7 6 -17 13 -21 8 -4 22 -29 32
-55 10 -26 21 -46 24 -43 4 2 13 -12 20 -32 8 -20 22 -45 32 -56 10 -11 21
-32 24 -46 6 -30 50 -61 85 -61 35 0 79 31 85 61 3 14 14 35 23 45 10 11 24
35 32 54 8 19 19 40 25 45 7 6 18 26 25 45 8 19 19 40 25 45 7 6 18 26 25 45
8 19 19 40 25 45 7 6 18 26 26 45 7 19 21 42 31 52 10 10 18 25 18 33 0 8 3
15 8 15 4 0 16 20 27 45 11 25 22 45 26 45 3 0 14 20 25 45 10 25 21 45 25 45
4 0 12 14 18 30 5 17 14 30 19 30 4 0 16 23 26 50 10 28 22 50 26 50 5 0 16
20 25 44 10 25 23 47 29 49 7 3 18 23 26 46 7 23 17 41 22 41 5 0 14 14 19 30
6 17 14 30 18 30 4 0 15 20 25 45 11 25 22 45 25 45 4 0 15 20 25 45 11 25 22
45 25 45 4 0 13 16 20 35 7 19 16 35 21 35 5 0 14 16 20 35 6 19 17 38 24 42
7 5 18 24 26 43 7 19 18 40 25 45 6 6 20 31 30 57 9 26 21 46 25 43 4 -2 13
14 20 35 7 22 16 40 20 40 4 0 15 19 26 43 10 23 26 50 36 60 9 11 19 30 22
43 4 14 15 33 26 44 11 11 20 27 20 35 0 8 4 15 9 15 4 0 16 20 25 45 10 25
21 45 25 45 5 0 16 20 27 45 10 25 21 45 25 45 3 0 14 20 23 45 10 25 21 45
26 45 5 0 14 15 20 34 6 19 17 36 24 39 7 3 18 23 24 45 7 22 18 42 25 45 7 3
19 23 27 46 7 23 17 41 22 41 5 0 14 14 19 30 6 17 14 30 18 30 4 0 15 20 25
45 11 25 22 45 25 45 4 0 13 16 20 35 7 19 18 41 24 48 7 7 21 30 32 52 11 22
26 46 32 53 7 7 13 20 13 27 0 8 6 18 13 22 8 4 22 29 32 55 10 26 21 46 24
43 4 -2 15 18 25 45 10 28 21 48 26 45 4 -2 13 13 20 35 7 21 18 41 24 43 7 3
18 23 26 46 7 23 17 41 21 41 4 0 15 18 25 40 10 22 21 40 24 40 3 0 12 16 20
35 8 19 17 35 20 35 4 0 15 20 26 45 10 25 21 45 24 45 3 0 15 19 25 43 10 23
25 48 32 55 7 7 13 19 13 26 0 7 8 21 19 32 10 11 24 37 30 57 7 20 16 37 21
37 4 0 16 20 27 45 10 25 21 45 24 45 3 0 14 19 25 43 10 23 24 46 31 50 7 4
13 14 13 22 0 7 6 20 13 27 7 7 19 28 26 46 8 19 19 39 25 46 6 6 20 29 31 51
11 22 22 42 25 45 3 3 14 23 25 45 11 22 26 46 32 53 7 7 13 20 13 27 0 8 6
18 13 22 7 4 19 24 27 43 7 19 18 40 25 45 6 6 20 31 30 57 9 26 21 46 25 43
4 -2 13 14 20 35 7 22 16 40 20 40 4 0 15 19 26 43 10 23 27 51 36 61 10 11
21 34 24 53 3 18 10 33 15 33 19 0 8 40 -18 67 l-28 28 -2655 1 c-1460 1
-2662 0 -2671 -3z m2856 -654 c41 -6 75 -15 75 -19 0 -4 20 -13 45 -20 25 -7
45 -16 45 -20 0 -5 12 -12 28 -18 15 -5 38 -19 51 -31 13 -11 28 -21 32 -21
17 0 88 -81 106 -120 4 -8 12 -21 19 -27 7 -7 18 -39 25 -70 7 -32 18 -61 23
-65 15 -10 15 -286 1 -296 -6 -4 -19 -33 -28 -64 -10 -32 -22 -58 -27 -58 -5
0 -12 -10 -15 -21 -8 -25 -106 -129 -121 -129 -6 0 -19 -8 -30 -18 -10 -10
-34 -25 -51 -32 -18 -8 -33 -17 -33 -20 0 -4 23 -14 50 -24 28 -10 50 -21 50
-25 0 -4 12 -13 28 -20 15 -7 34 -19 42 -27 8 -8 34 -32 58 -53 23 -22 42 -44
42 -50 0 -5 8 -16 18 -23 10 -7 24 -29 32 -48 8 -19 17 -37 21 -40 5 -3 15
-32 24 -65 20 -77 19 -224 -1 -317 -9 -40 -16 -78 -17 -85 0 -7 -4 -10 -9 -7
-4 3 -8 -2 -8 -10 0 -9 -8 -24 -17 -34 -10 -10 -25 -31 -33 -47 -20 -39 -101
-120 -142 -141 -17 -9 -37 -22 -44 -28 -6 -7 -31 -18 -55 -26 -24 -8 -47 -18
-50 -22 -3 -5 -32 -14 -65 -20 -32 -7 -62 -17 -66 -23 -10 -14 -366 -13 -376
1 -4 5 -36 15 -71 22 -36 6 -67 15 -70 20 -3 4 -26 14 -50 22 -24 8 -49 19
-55 25 -6 6 -27 18 -46 27 -19 9 -41 26 -48 38 -7 11 -17 18 -22 15 -5 -3 -17
7 -27 22 -10 15 -28 39 -40 53 -13 14 -23 30 -23 37 0 7 -4 13 -9 13 -5 0 -14
15 -22 33 -7 17 -16 34 -21 37 -15 11 -38 154 -38 244 0 90 22 208 40 214 5 2
14 19 20 38 7 20 15 33 18 30 5 -6 27 25 38 55 3 9 17 22 30 28 14 6 22 16 19
21 -3 6 1 10 9 10 8 0 21 9 29 20 7 11 30 27 50 35 20 8 37 19 37 24 0 9 62
35 84 36 17 0 18 25 2 25 -9 0 -24 8 -34 18 -10 9 -31 24 -47 32 -35 18 -145
123 -145 138 0 6 -6 15 -13 19 -16 9 -47 85 -47 112 0 11 -6 21 -12 24 -17 5
-18 274 -2 285 6 4 17 30 23 59 7 29 21 62 32 74 10 12 19 26 19 30 0 4 11 21
25 36 42 48 46 53 38 53 -10 0 35 27 60 36 9 3 17 10 17 15 0 5 18 16 40 25
22 9 37 20 34 25 -3 5 -2 9 3 7 11 -3 97 25 103 33 18 25 315 37 445 18z
m-895 -1883 c0 -2 -8 -10 -17 -17 -16 -13 -17 -12 -4 4 13 16 21 21 21 13z"/>
<path d="M6421 7389 c-25 -5 -47 -13 -50 -18 -3 -5 -25 -17 -49 -27 -23 -11
-45 -27 -48 -37 -3 -10 -16 -29 -29 -43 -43 -47 -56 -220 -24 -314 6 -16 15
-30 20 -30 5 0 9 -7 9 -15 0 -27 83 -101 134 -118 57 -20 181 -22 241 -6 39
11 125 90 125 117 0 6 4 12 9 12 14 0 31 57 37 131 8 79 -11 193 -35 217 -9 9
-23 29 -30 43 -7 15 -31 35 -52 45 -21 11 -39 22 -39 26 0 9 -95 28 -138 27
-20 -1 -57 -5 -81 -10z"/>
<path d="M6387 6455 c-32 -8 -65 -22 -73 -30 -9 -8 -20 -15 -25 -15 -8 0 -57
-47 -104 -100 -7 -8 -17 -29 -21 -45 -4 -17 -12 -33 -18 -37 -16 -11 -15 -230
2 -235 6 -3 12 -13 12 -24 0 -10 9 -28 20 -39 11 -11 20 -23 20 -28 0 -7 21
-29 66 -70 24 -22 96 -52 125 -52 11 0 17 -4 14 -10 -4 -6 31 -10 99 -10 57 0
106 3 108 8 2 4 27 15 55 25 60 20 141 94 163 148 8 19 19 37 24 41 16 11 15
260 -1 265 -7 3 -17 20 -23 39 -6 19 -16 34 -21 34 -5 0 -14 11 -19 25 -5 14
-15 25 -21 25 -7 0 -9 3 -6 7 7 6 -23 27 -55 39 -10 3 -18 10 -18 14 0 31
-211 48 -303 25z"/>
<path d="M3515 8046 c-21 -21 -45 -81 -45 -113 0 -7 -4 -13 -8 -13 -5 0 -17
-34 -27 -75 -11 -41 -22 -75 -25 -75 -3 0 -12 -22 -19 -50 -7 -27 -16 -50 -20
-50 -4 0 -15 -34 -25 -75 -10 -41 -21 -75 -26 -75 -4 0 -16 -31 -25 -70 -9
-38 -21 -70 -25 -70 -4 0 -13 -27 -20 -60 -7 -33 -16 -60 -20 -60 -4 0 -16
-30 -26 -67 -10 -38 -21 -70 -24 -73 -4 -3 -15 -35 -26 -72 -10 -38 -21 -68
-25 -68 -3 0 -12 -25 -19 -55 -7 -30 -17 -55 -22 -55 -4 0 -8 -6 -8 -14 0 -19
-32 -120 -41 -126 -3 -3 -12 -30 -19 -60 -7 -30 -18 -65 -26 -77 -8 -12 -16
-30 -17 -40 -10 -51 -30 -113 -37 -113 -4 0 -12 -25 -19 -55 -7 -30 -16 -55
-21 -55 -5 0 -16 -34 -26 -75 -10 -41 -21 -75 -25 -75 -4 0 -15 -30 -25 -67
-10 -38 -21 -70 -24 -73 -4 -3 -13 -27 -20 -55 -7 -27 -16 -52 -20 -55 -8 -6
-40 -108 -40 -126 0 -8 -4 -14 -10 -14 -5 0 -10 -6 -10 -14 0 -18 -32 -120
-40 -126 -3 -3 -15 -36 -25 -75 -10 -38 -21 -72 -25 -75 -3 -3 -12 -26 -20
-52 -7 -27 -16 -48 -19 -48 -4 0 -16 -35 -26 -77 -9 -42 -23 -83 -30 -89 -6
-7 -18 -40 -25 -73 -7 -34 -16 -61 -20 -61 -5 0 -13 -22 -20 -50 -7 -27 -15
-50 -19 -50 -4 0 -16 -34 -26 -75 -11 -41 -23 -75 -27 -75 -4 0 -8 -6 -8 -14
0 -18 -32 -120 -40 -126 -4 -3 -15 -38 -25 -77 -10 -40 -22 -73 -26 -73 -4 0
-12 -22 -19 -50 -7 -27 -15 -50 -19 -50 -4 0 -15 -34 -25 -75 -10 -41 -21 -75
-25 -75 -4 0 -16 -34 -26 -75 -11 -41 -22 -75 -26 -75 -11 0 -29 -85 -29 -135
0 -39 5 -50 35 -80 32 -31 42 -34 115 -41 44 -3 80 -10 80 -14 0 -4 85 -15
189 -25 105 -11 188 -22 186 -25 -2 -3 77 -14 176 -25 98 -10 179 -22 179 -25
0 -4 83 -15 185 -25 102 -11 185 -22 185 -26 0 -3 62 -12 138 -19 75 -7 142
-16 147 -20 6 -4 88 -16 183 -25 94 -10 172 -21 172 -25 0 -4 81 -15 180 -25
98 -10 177 -21 175 -25 -2 -4 61 -13 140 -20 80 -7 145 -16 145 -20 0 -4 81
-15 180 -25 99 -10 180 -21 180 -25 0 -4 82 -15 183 -25 100 -10 184 -21 187
-25 3 -4 85 -15 183 -25 97 -10 177 -22 177 -26 0 -5 15 -9 33 -9 58 0 237
-24 237 -32 0 -4 20 -8 45 -8 25 0 45 4 45 9 0 5 9 11 20 14 16 4 20 14 20 51
0 30 -5 48 -14 52 -7 3 -19 23 -26 45 -7 21 -16 39 -20 39 -4 0 -15 19 -26 43
-10 23 -24 48 -31 55 -6 7 -17 28 -24 47 -7 19 -16 35 -20 35 -4 0 -12 14 -19
30 -7 17 -16 30 -20 30 -4 0 -15 20 -24 45 -10 25 -21 45 -25 45 -5 0 -16 20
-27 45 -10 25 -21 45 -25 45 -3 0 -14 20 -23 45 -10 25 -21 45 -26 45 -5 0
-14 15 -20 34 -6 19 -17 36 -24 39 -6 3 -18 23 -26 46 -7 23 -16 41 -20 41 -4
0 -15 19 -26 43 -10 23 -24 48 -31 55 -7 7 -13 17 -13 22 0 5 -6 15 -13 22 -7
7 -21 31 -31 53 -11 22 -22 42 -25 45 -3 3 -15 23 -26 45 -11 22 -22 42 -25
45 -3 3 -14 23 -25 45 -11 22 -26 46 -32 53 -7 7 -13 20 -13 27 0 8 -6 18 -13
22 -7 4 -19 24 -27 43 -7 19 -18 40 -25 45 -6 6 -20 31 -30 57 -10 27 -21 48
-25 48 -4 0 -14 15 -21 33 -7 17 -21 40 -31 51 -9 10 -20 32 -23 47 -4 16 -10
29 -15 29 -4 0 -16 17 -25 38 -10 20 -21 39 -24 42 -4 3 -15 24 -25 48 -11 23
-22 42 -26 42 -3 0 -12 16 -20 35 -8 19 -17 35 -21 35 -3 0 -14 20 -23 45 -10
25 -21 45 -26 45 -5 0 -14 16 -20 35 -6 19 -17 38 -24 42 -7 5 -19 24 -25 45
-7 20 -18 38 -25 41 -6 3 -18 23 -26 46 -7 23 -16 41 -20 41 -4 0 -15 19 -26
43 -10 23 -24 48 -31 55 -7 7 -13 17 -13 22 0 5 -6 15 -13 22 -7 7 -21 32 -31
56 -11 23 -22 42 -25 42 -3 0 -15 20 -26 45 -11 25 -22 45 -26 45 -3 0 -14 20
-23 45 -10 25 -21 45 -26 45 -4 0 -13 14 -19 30 -5 17 -14 30 -19 30 -4 0 -16
23 -26 50 -10 28 -22 50 -26 50 -5 0 -16 20 -25 45 -10 24 -21 42 -25 40 -5
-3 -14 11 -21 32 -6 20 -20 46 -30 57 -11 11 -19 25 -19 32 0 7 -6 19 -13 26
-7 7 -21 32 -31 56 -11 23 -22 42 -25 42 -4 0 -15 20 -25 45 -11 25 -22 45
-26 45 -4 0 -11 11 -14 24 -3 14 -12 31 -20 39 -8 8 -21 30 -30 51 -8 20 -19
36 -24 36 -5 0 -14 17 -20 38 -6 20 -23 53 -37 72 -14 18 -25 40 -25 47 0 7
-4 13 -8 13 -5 0 -17 19 -28 43 -10 23 -23 45 -29 49 -7 4 -17 25 -25 48 -7
22 -16 40 -20 40 -4 0 -15 19 -26 43 -10 23 -27 51 -36 61 -10 11 -18 26 -18
33 0 7 -3 13 -7 13 -5 0 -16 20 -26 45 -11 25 -22 45 -27 45 -4 0 -15 20 -24
45 -10 25 -21 45 -26 45 -5 0 -14 16 -20 35 -6 19 -15 35 -20 35 -5 0 -16 20
-26 45 -9 25 -20 45 -25 45 -4 0 -15 20 -24 44 -10 25 -23 47 -29 49 -7 3 -18
23 -26 46 -7 23 -16 41 -20 41 -4 0 -13 14 -20 30 -7 17 -15 30 -19 30 -3 0
-14 20 -24 45 -11 25 -22 45 -26 45 -4 0 -13 16 -20 35 -11 32 -52 65 -81 65
-6 0 -22 -11 -35 -24z m470 -1921 c33 -9 63 -23 68 -30 4 -8 14 -15 22 -15 17
0 135 -109 135 -124 0 -6 9 -17 20 -24 11 -7 20 -18 20 -26 0 -8 6 -16 13 -19
7 -3 19 -23 27 -46 7 -22 16 -38 21 -36 4 3 15 -21 25 -52 10 -32 21 -60 25
-63 13 -10 29 -112 29 -183 -1 -84 -14 -153 -35 -174 -8 -8 -15 -21 -15 -29 0
-18 -101 -124 -118 -124 -7 0 -15 -6 -18 -14 -3 -8 -25 -21 -50 -31 -24 -9
-44 -20 -44 -24 0 -5 -20 -16 -45 -27 -25 -10 -45 -21 -45 -25 0 -4 -13 -12
-30 -19 -16 -7 -30 -16 -30 -20 0 -5 -23 -16 -50 -25 -28 -9 -48 -20 -46 -24
5 -8 -89 -41 -117 -41 -10 0 -17 -4 -17 -10 0 -6 -35 -10 -85 -10 -47 0 -85 4
-85 8 0 5 -24 14 -54 21 -30 7 -64 21 -77 32 -12 10 -25 19 -29 19 -9 0 -39
30 -75 74 -16 21 -38 46 -48 57 -10 12 -23 35 -29 52 -6 18 -15 35 -21 38 -16
11 -37 120 -37 193 0 82 18 192 34 209 6 7 17 25 24 40 12 29 23 43 58 82 12
13 24 31 28 40 3 9 14 19 24 22 10 2 33 22 51 44 19 21 38 39 44 39 5 0 24 14
41 30 55 54 101 90 114 90 7 0 11 4 8 8 -3 5 6 15 19 22 14 7 25 17 25 21 0 5
15 16 33 25 17 9 34 21 37 25 9 13 110 38 155 38 23 1 68 -6 100 -14z m771
-1077 c5 -13 8 -26 9 -29 0 -3 8 -13 17 -22 9 -10 22 -33 29 -52 7 -19 17 -35
22 -35 4 0 15 -16 23 -35 8 -19 19 -35 24 -35 26 0 5 -18 -40 -34 -27 -10 -50
-21 -50 -25 0 -4 -26 -15 -57 -25 -31 -10 -63 -24 -70 -32 -8 -7 -29 -16 -48
-20 -19 -3 -35 -10 -35 -15 0 -4 -25 -16 -55 -25 -30 -10 -55 -21 -55 -25 0
-4 -27 -15 -60 -25 -33 -10 -60 -21 -60 -25 0 -4 -16 -13 -35 -19 -19 -6 -35
-15 -35 -18 0 -4 -29 -16 -65 -27 -36 -10 -65 -22 -65 -26 0 -3 -21 -14 -47
-24 -27 -10 -50 -21 -53 -25 -3 -3 -24 -12 -48 -20 -24 -7 -45 -17 -48 -22 -3
-5 4 -23 15 -41 12 -17 28 -47 36 -64 8 -18 19 -33 23 -33 4 0 14 -16 21 -35
7 -19 16 -35 20 -35 7 0 31 -43 31 -55 0 -2 -18 -6 -40 -10 -22 -4 -38 -10
-35 -15 3 -4 -14 -12 -36 -18 -34 -9 -41 -8 -46 6 -4 10 -15 23 -25 30 -10 7
-18 17 -18 23 0 9 -6 17 -48 65 -10 11 -22 27 -25 35 -13 26 -38 62 -74 104
-10 11 -24 33 -32 48 -8 15 -16 25 -19 22 -3 -2 -14 12 -25 33 -11 20 -23 39
-28 43 -5 3 7 11 26 18 19 7 35 16 35 21 0 5 18 15 40 21 23 7 37 16 33 23 -3
6 -3 8 1 4 7 -6 85 28 96 42 3 4 29 15 58 25 28 11 52 22 52 26 0 4 16 13 35
19 19 6 35 15 35 19 0 4 23 15 50 25 28 10 50 21 50 25 0 4 25 16 55 26 30 11
55 22 55 26 0 4 16 13 35 19 19 6 35 15 35 19 0 4 23 15 50 25 28 10 50 21 50
25 0 4 23 15 50 25 28 10 50 21 50 25 0 4 25 15 55 26 30 10 55 22 55 26 0 4
16 13 35 19 19 6 35 16 35 21 0 19 29 8 36 -13z"/>
<path d="M3865 5876 c-26 -8 -35 -14 -25 -18 13 -5 12 -7 -1 -7 -9 -1 -22 -8
-29 -16 -7 -9 -15 -13 -18 -11 -2 3 -13 -6 -24 -19 -11 -14 -24 -25 -29 -25
-5 0 -18 -8 -28 -17 -11 -10 -32 -27 -47 -38 -14 -11 -35 -28 -45 -37 -10 -9
-31 -24 -47 -32 -16 -8 -32 -22 -35 -31 -4 -8 -13 -15 -21 -15 -9 0 -23 -11
-32 -25 -9 -14 -23 -25 -30 -25 -8 0 -17 -8 -21 -17 -3 -10 -14 -26 -24 -36
-11 -10 -22 -30 -25 -45 -4 -15 -11 -30 -17 -33 -17 -12 -12 -136 7 -154 9 -9
16 -23 16 -31 0 -8 7 -17 15 -20 8 -4 15 -11 15 -18 2 -41 76 -79 154 -78 55
0 136 20 136 32 0 4 14 13 30 20 17 7 30 16 30 21 0 4 17 16 38 26 20 9 46 25
56 35 11 10 25 18 32 18 7 0 17 6 21 13 4 7 27 21 51 31 23 11 42 23 42 28 0
5 11 13 25 18 14 5 25 14 25 20 0 5 6 10 13 10 7 0 33 20 59 45 49 47 68 90
68 157 0 48 -21 139 -31 132 -4 -2 -12 11 -18 29 -6 18 -19 40 -29 48 -11 9
-25 25 -33 36 -29 41 -139 55 -224 29z"/>
<path d="M9410 8055 c-14 -7 -32 -29 -40 -49 -7 -20 -17 -36 -20 -36 -4 0 -15
-19 -26 -42 -10 -24 -24 -49 -31 -56 -7 -7 -13 -20 -13 -27 0 -8 -6 -18 -13
-22 -7 -4 -21 -27 -31 -50 -11 -24 -22 -43 -26 -43 -4 0 -15 -20 -24 -45 -10
-25 -21 -45 -25 -45 -5 0 -16 -20 -25 -45 -10 -25 -21 -45 -26 -45 -5 0 -14
-16 -20 -35 -6 -19 -15 -35 -20 -35 -5 0 -16 -20 -26 -45 -9 -25 -20 -45 -24
-45 -4 0 -15 -19 -26 -42 -10 -24 -24 -49 -31 -56 -7 -7 -13 -17 -13 -22 0 -5
-6 -15 -13 -22 -7 -7 -21 -32 -31 -55 -11 -24 -22 -43 -26 -43 -4 0 -13 -18
-20 -40 -8 -23 -18 -44 -24 -48 -6 -4 -20 -26 -31 -49 -11 -24 -23 -43 -27
-43 -5 0 -8 -7 -8 -15 0 -8 -8 -23 -19 -34 -10 -10 -27 -40 -37 -67 -10 -27
-23 -52 -30 -57 -7 -4 -18 -23 -24 -42 -6 -19 -15 -35 -20 -35 -5 0 -14 -16
-21 -35 -7 -19 -16 -35 -19 -35 -4 0 -15 -19 -26 -42 -10 -24 -26 -51 -36 -62
-9 -10 -20 -32 -23 -47 -4 -16 -10 -29 -14 -29 -4 0 -15 -18 -25 -40 -10 -22
-21 -40 -26 -40 -5 0 -11 -14 -15 -31 -4 -17 -13 -33 -20 -35 -7 -3 -20 -25
-30 -50 -9 -24 -20 -44 -25 -44 -4 0 -16 -22 -26 -50 -10 -27 -22 -50 -26 -50
-5 0 -14 -13 -19 -30 -6 -16 -15 -30 -19 -30 -5 0 -16 -20 -26 -45 -9 -25 -20
-45 -23 -45 -4 0 -15 -20 -26 -45 -11 -25 -23 -45 -26 -45 -4 0 -12 -13 -19
-30 -7 -16 -15 -30 -19 -30 -4 0 -13 -16 -20 -35 -7 -19 -18 -40 -24 -47 -7
-7 -21 -32 -31 -55 -11 -24 -22 -43 -26 -43 -4 0 -13 -18 -20 -41 -8 -23 -20
-43 -27 -46 -7 -3 -18 -23 -24 -44 -7 -21 -16 -39 -21 -39 -5 0 -16 -17 -25
-37 -8 -21 -19 -40 -23 -43 -7 -5 -19 -25 -65 -116 -11 -21 -25 -45 -32 -52
-6 -7 -17 -28 -24 -47 -7 -19 -16 -35 -19 -35 -3 0 -14 -18 -24 -40 -10 -22
-21 -40 -26 -40 -5 0 -11 -13 -15 -29 -3 -15 -14 -37 -24 -48 -10 -11 -22 -29
-25 -41 -4 -12 -13 -28 -20 -35 -7 -7 -23 -33 -35 -57 -43 -88 -61 -120 -69
-120 -5 0 -14 -18 -21 -40 -6 -22 -15 -40 -20 -40 -4 0 -16 -19 -27 -42 -10
-24 -21 -45 -24 -48 -3 -3 -14 -23 -25 -45 -11 -22 -25 -45 -32 -52 -6 -7 -17
-29 -24 -48 -7 -19 -16 -35 -20 -35 -4 0 -12 -13 -19 -30 -7 -16 -16 -30 -20
-30 -4 0 -13 -18 -20 -41 -8 -23 -19 -43 -26 -46 -6 -2 -17 -22 -25 -45 -7
-22 -19 -42 -25 -45 -7 -3 -18 -20 -24 -39 -6 -19 -15 -34 -20 -34 -5 0 -16
-20 -26 -45 -9 -25 -20 -45 -23 -45 -4 0 -15 -20 -25 -45 -11 -25 -22 -45 -27
-45 -4 0 -15 -20 -25 -45 -9 -25 -20 -45 -24 -45 -4 0 -13 -13 -20 -30 -7 -17
-16 -30 -20 -30 -7 0 -19 -28 -24 -52 0 -4 -8 -15 -16 -25 -8 -10 -24 -37 -34
-60 -10 -24 -22 -43 -26 -43 -4 0 -13 -18 -20 -39 -7 -22 -19 -42 -26 -45 -9
-4 -14 -22 -14 -52 0 -37 4 -47 20 -51 11 -3 20 -9 20 -14 0 -5 20 -9 45 -9
25 0 45 4 45 8 0 4 50 14 112 20 62 7 119 18 127 25 12 9 13 9 7 0 -4 -8 -1
-13 8 -13 9 0 16 4 16 8 0 5 80 17 178 27 97 10 179 21 182 25 3 4 87 15 188
25 100 10 182 22 182 25 0 4 80 15 178 25 97 10 179 21 182 25 3 4 66 13 140
20 74 7 137 16 140 20 3 3 85 15 183 25 97 10 177 21 177 25 0 4 83 15 184 25
102 11 183 22 181 25 -2 4 59 12 135 20 77 7 140 16 140 19 0 4 83 15 185 26
102 10 185 21 185 25 0 6 347 46 363 42 4 -1 7 2 7 7 0 5 81 17 180 27 99 9
180 21 180 25 0 3 36 10 80 13 73 7 83 10 115 41 30 30 35 41 35 82 0 49 -17
124 -29 133 -4 3 -15 35 -25 73 -10 37 -21 67 -25 67 -4 0 -8 6 -9 13 -2 27
-36 142 -43 147 -4 3 -13 27 -19 53 -7 26 -15 47 -19 47 -4 0 -16 33 -26 73
-10 39 -21 74 -25 77 -8 6 -40 108 -40 126 0 8 -4 14 -8 14 -4 0 -16 34 -27
75 -10 41 -22 75 -26 75 -4 0 -12 22 -19 50 -7 27 -15 50 -19 50 -4 0 -15 32
-25 70 -10 39 -21 70 -25 70 -4 0 -16 35 -26 77 -9 42 -23 83 -30 90 -7 7 -16
31 -20 53 -4 22 -10 40 -14 40 -4 0 -16 33 -26 73 -10 39 -21 74 -25 77 -8 6
-40 108 -40 126 0 8 -4 14 -8 14 -4 0 -16 32 -26 70 -10 39 -21 70 -25 70 -4
0 -13 24 -21 53 -7 28 -16 54 -20 57 -3 3 -14 35 -24 73 -10 37 -21 67 -25 67
-4 0 -15 32 -24 71 -9 39 -23 77 -31 84 -7 8 -17 34 -20 60 -4 25 -11 45 -15
45 -5 0 -16 30 -25 66 -9 36 -23 75 -30 87 -8 12 -19 47 -26 77 -7 30 -16 57
-19 60 -9 6 -41 107 -41 126 0 8 -4 14 -8 14 -5 0 -15 25 -22 55 -7 30 -16 55
-20 55 -3 0 -14 32 -25 70 -11 39 -22 70 -26 70 -3 0 -12 27 -19 61 -7 33 -19
66 -25 73 -7 7 -18 38 -25 69 -7 31 -16 57 -20 57 -4 0 -16 32 -26 70 -10 39
-21 70 -25 70 -4 0 -15 34 -25 75 -10 41 -21 75 -25 75 -4 0 -13 23 -20 50 -7
28 -16 50 -19 50 -3 0 -14 34 -25 75 -10 41 -21 75 -25 75 -4 0 -15 29 -24 64
-14 49 -23 66 -42 75 -31 14 -33 13 -64 -4z m-430 -1955 c19 -16 38 -30 42
-30 3 0 22 -15 41 -33 19 -19 40 -37 48 -40 29 -14 54 -33 72 -54 10 -13 24
-23 30 -23 7 0 18 -9 25 -20 7 -11 17 -20 24 -20 6 0 18 -7 27 -15 50 -45 62
-55 88 -72 15 -10 34 -26 41 -35 7 -10 22 -18 33 -18 10 0 19 -7 19 -15 0 -9
8 -19 18 -22 9 -4 27 -16 39 -27 42 -39 61 -54 85 -67 24 -12 34 -20 81 -63
15 -14 32 -26 37 -26 5 0 15 -8 22 -17 7 -10 25 -24 40 -32 22 -11 30 -12 43
-1 8 7 15 19 15 27 0 7 6 16 14 19 8 3 17 16 20 28 3 12 15 33 26 46 21 24 22
24 74 -22 11 -10 23 -18 27 -18 4 0 14 -12 23 -26 16 -23 16 -29 1 -75 -9 -27
-20 -49 -24 -49 -4 0 -15 -25 -26 -55 -10 -30 -22 -55 -26 -55 -4 0 -16 -25
-25 -55 -10 -30 -21 -55 -24 -55 -4 0 -13 -18 -20 -40 -7 -22 -19 -40 -27 -40
-7 0 -13 4 -13 8 0 5 -16 16 -35 25 -19 9 -35 21 -35 26 0 5 -13 14 -30 21
-16 7 -30 16 -30 21 0 5 -15 16 -32 25 -18 9 -37 23 -41 30 -4 8 -14 14 -20
14 -7 0 -28 13 -47 30 -19 16 -40 29 -47 30 -7 0 -17 9 -23 20 -6 11 -17 20
-25 20 -8 0 -18 6 -22 13 -4 6 -24 21 -43 31 -19 11 -39 25 -43 33 -4 7 -13
13 -20 13 -7 0 -28 14 -47 30 -19 16 -41 30 -47 30 -7 0 -13 5 -13 10 0 6 -16
18 -35 27 -19 9 -32 20 -30 23 3 4 -9 13 -25 20 -17 7 -34 18 -38 24 -4 6 -24
20 -44 31 -21 11 -38 23 -38 28 0 4 -11 12 -25 17 -14 5 -25 13 -25 17 0 5
-17 17 -37 28 -21 11 -44 28 -51 37 -7 10 -20 18 -28 18 -8 0 -17 7 -20 15 -4
8 -11 15 -18 15 -18 0 -71 50 -61 58 6 4 19 25 30 47 11 22 25 45 31 50 6 6
17 26 24 45 8 19 20 39 27 43 7 4 13 14 13 20 0 16 20 37 35 37 5 0 26 -14 45
-30z m-135 -774 c33 -8 61 -19 63 -25 2 -6 9 -11 16 -11 15 0 95 -39 81 -40
-5 0 10 -10 35 -22 25 -12 47 -26 48 -30 2 -4 9 -8 16 -8 7 0 22 -9 34 -21 13
-11 38 -27 57 -35 19 -8 35 -18 35 -23 0 -4 18 -16 40 -26 22 -10 40 -21 40
-25 0 -4 18 -25 40 -46 22 -22 40 -45 40 -51 0 -7 5 -13 11 -13 5 0 15 -13 20
-30 6 -16 14 -30 18 -30 10 0 29 -56 37 -107 4 -24 10 -43 15 -43 11 0 12
-197 2 -202 -5 -1 -16 -34 -25 -71 -10 -38 -25 -75 -33 -83 -8 -9 -15 -22 -15
-30 0 -8 -6 -17 -14 -20 -8 -3 -17 -16 -20 -29 -3 -12 -17 -33 -31 -46 -13
-13 -25 -28 -25 -33 0 -5 -30 -38 -67 -73 -67 -65 -67 -65 -84 -44 -10 12 -21
21 -26 21 -6 0 -23 13 -39 30 -16 16 -35 30 -42 30 -7 0 14 27 48 60 33 32 60
64 60 69 0 5 8 16 18 23 10 7 26 31 36 53 11 22 22 42 26 45 16 11 30 77 30
138 0 63 -16 132 -31 132 -4 0 -9 10 -12 23 -8 30 -78 101 -116 118 -17 8 -31
17 -31 20 0 4 -14 12 -30 18 -29 10 -30 9 -24 -14 7 -29 -16 -205 -27 -205 -4
0 -15 -25 -24 -55 -8 -30 -20 -55 -25 -55 -6 0 -10 -6 -10 -14 0 -7 -7 -19
-15 -26 -9 -7 -13 -15 -11 -18 3 -2 -6 -13 -19 -24 -14 -10 -24 -22 -22 -26 1
-6 -39 -48 -93 -96 -8 -7 -32 -19 -52 -25 -20 -7 -38 -16 -40 -21 -7 -18 -162
-42 -233 -35 -83 8 -155 24 -155 35 0 5 -14 12 -31 15 -36 8 -132 97 -143 133
-5 13 -11 21 -14 17 -13 -12 -32 83 -32 162 0 85 16 183 30 183 4 0 11 16 14
35 4 19 13 40 20 47 7 7 21 34 31 61 10 26 21 47 25 47 4 0 12 12 19 28 7 15
19 34 27 42 116 123 143 150 152 150 6 0 15 6 19 13 4 7 26 21 48 32 22 10 43
22 46 27 9 14 128 36 194 37 33 0 87 -6 120 -13z"/>
<path d="M8558 5073 c-16 -2 -28 -8 -28 -13 0 -4 -13 -13 -30 -19 -16 -5 -30
-15 -30 -20 0 -6 -6 -11 -12 -11 -20 -1 -52 -31 -73 -70 -11 -19 -25 -40 -32
-48 -31 -32 -30 -215 1 -237 9 -7 16 -17 16 -23 0 -6 10 -17 23 -23 12 -7 25
-18 29 -24 4 -7 20 -16 35 -20 15 -3 31 -12 35 -18 4 -7 41 -13 87 -15 68 -4
88 -1 123 18 24 12 48 27 53 34 6 7 18 15 28 19 9 4 21 17 26 30 5 14 16 27
23 30 8 2 20 23 28 46 7 23 16 41 20 41 12 0 30 85 30 142 0 67 -9 98 -26 98
-8 0 -22 8 -33 19 -10 10 -41 24 -69 32 -28 7 -49 16 -47 19 9 14 -113 23
-177 13z"/>
<path d="M2580 3598 c1 -22 23 -43 68 -62 23 -11 42 -22 42 -25 0 -3 19 -15
43 -26 23 -11 44 -22 47 -25 3 -3 23 -14 45 -25 22 -11 46 -26 53 -32 7 -7 17
-13 22 -13 5 0 15 -6 22 -13 7 -7 32 -21 56 -31 23 -11 42 -22 42 -25 0 -4 20
-15 45 -26 25 -11 45 -23 45 -27 0 -5 6 -8 13 -8 7 0 22 -8 33 -18 10 -9 38
-26 62 -36 23 -11 42 -22 42 -26 0 -3 16 -12 35 -19 19 -7 40 -18 47 -24 7 -7
27 -19 43 -27 17 -8 36 -21 43 -27 7 -7 19 -13 26 -13 7 0 21 -8 32 -18 10 -9
38 -26 62 -36 23 -11 42 -22 42 -26 0 -3 16 -12 35 -19 19 -7 40 -18 47 -24 7
-7 27 -19 43 -27 17 -8 36 -21 43 -27 7 -7 19 -13 26 -13 7 0 21 -8 32 -18 11
-10 38 -27 62 -37 23 -10 42 -22 42 -25 0 -3 16 -12 35 -19 19 -7 35 -16 35
-20 0 -4 19 -16 43 -27 23 -10 48 -24 55 -31 7 -7 19 -13 26 -13 7 0 21 -8 32
-18 10 -9 38 -26 62 -36 23 -11 42 -22 42 -26 0 -3 16 -12 35 -20 19 -8 35
-17 35 -20 0 -3 19 -15 43 -25 23 -10 48 -25 55 -32 7 -7 19 -13 26 -13 7 0
21 -8 32 -18 10 -10 34 -24 52 -31 17 -7 32 -17 32 -21 0 -4 20 -15 45 -24 25
-10 45 -21 45 -26 0 -5 20 -16 45 -26 25 -9 45 -20 45 -24 0 -5 13 -12 28 -18
16 -5 35 -16 43 -24 8 -7 29 -20 47 -27 17 -7 32 -17 32 -21 0 -4 20 -15 45
-24 25 -10 45 -21 45 -25 0 -5 20 -16 45 -27 25 -10 45 -21 45 -25 0 -4 14
-12 30 -18 17 -5 30 -14 30 -19 0 -5 20 -17 45 -28 25 -10 45 -21 45 -25 0 -3
20 -14 45 -25 25 -10 45 -21 45 -25 0 -3 20 -14 45 -25 25 -10 45 -21 45 -25
0 -4 14 -12 30 -18 16 -5 30 -14 30 -20 0 -5 17 -15 38 -22 20 -6 45 -20 56
-31 10 -11 24 -17 31 -14 7 2 16 -2 19 -10 3 -8 12 -14 21 -14 8 0 15 -4 15
-10 0 -5 11 -12 25 -16 14 -3 29 -11 33 -18 4 -6 26 -20 50 -30 23 -11 42 -22
42 -26 0 -4 20 -15 45 -26 25 -10 45 -21 45 -24 0 -3 19 -15 42 -25 24 -10 51
-27 62 -37 11 -10 26 -18 33 -18 7 0 13 -4 13 -8 0 -7 53 -33 73 -36 4 0 11
-6 15 -12 4 -6 25 -19 47 -30 22 -10 42 -21 45 -25 16 -23 111 -38 137 -21 6
4 15 20 18 35 4 15 11 27 16 27 5 0 9 237 9 556 0 441 -3 554 -12 548 -10 -6
-10 -4 0 7 8 9 12 53 12 144 0 91 -4 135 -12 144 -10 11 -10 13 0 7 7 -4 12
-1 12 8 0 9 -4 16 -10 16 -5 0 -10 11 -10 24 0 27 -65 106 -87 106 -8 0 -12 4
-8 9 5 9 -30 18 -75 21 -49 2 -116 13 -120 19 -3 4 -84 16 -180 26 -96 10
-177 21 -180 24 -3 4 -86 15 -185 25 -99 10 -182 22 -185 26 -3 4 -65 13 -137
20 -73 7 -133 16 -133 20 0 4 -83 15 -185 25 -102 10 -185 21 -185 25 0 4 -83
15 -185 25 -102 10 -185 22 -185 25 0 4 -61 13 -135 20 -74 7 -135 16 -135 20
0 4 -81 15 -180 25 -99 10 -180 21 -180 25 0 4 -35 10 -77 14 -153 13 -288 30
-293 36 -3 4 -85 15 -182 25 -98 10 -178 21 -178 25 0 3 -63 12 -140 20 -77 7
-143 17 -146 21 -9 15 -114 11 -114 -3z m2690 -468 c3 -5 33 -14 68 -20 34 -7
62 -17 62 -21 0 -5 10 -9 23 -10 12 0 40 -6 61 -12 l39 -12 -24 -29 c-13 -16
-38 -43 -56 -62 -17 -18 -34 -41 -37 -51 -3 -10 -19 -27 -36 -38 -16 -11 -30
-25 -30 -31 0 -6 -13 -24 -30 -40 -16 -16 -30 -33 -30 -38 0 -5 -13 -23 -30
-40 -90 -94 -130 -140 -130 -148 0 -6 -11 -19 -25 -30 -14 -11 -25 -24 -25
-29 0 -5 -18 -26 -40 -46 -22 -21 -40 -43 -40 -49 0 -7 -8 -10 -20 -7 -11 3
-20 9 -20 13 0 5 -9 12 -20 15 -11 3 -26 12 -32 19 -7 6 -30 20 -50 29 -21 10
-38 22 -38 27 0 5 34 44 75 86 41 42 75 81 75 86 0 5 5 6 10 3 6 -3 10 0 10 8
0 7 20 32 44 54 24 22 52 53 62 69 10 15 49 57 86 93 38 36 68 71 68 78 0 6 6
13 13 16 6 2 0 8 -15 12 -16 4 -28 11 -28 15 0 5 -18 11 -40 15 -36 6 -38 8
-27 27 32 55 51 68 87 61 19 -3 37 -9 40 -13z m524 -242 c11 -10 23 -18 27
-18 4 0 14 -6 21 -12 20 -19 50 -38 71 -44 9 -4 17 -11 17 -16 0 -5 13 -14 30
-19 16 -6 28 -14 25 -19 -2 -4 13 -15 35 -25 22 -10 47 -26 56 -36 9 -10 20
-16 25 -14 4 3 14 -3 21 -12 7 -10 30 -26 51 -35 20 -10 37 -22 37 -27 0 -5 9
-12 20 -16 20 -6 20 -6 0 -27 -11 -12 -22 -29 -25 -37 -9 -28 -44 -42 -128
-48 -45 -3 -84 -9 -87 -12 -3 -4 -39 -12 -80 -19 -41 -7 -76 -17 -78 -22 -2
-6 -12 -10 -23 -10 -19 0 -100 -29 -109 -39 -3 -3 -21 -14 -42 -25 -38 -19
-188 -159 -188 -175 0 -5 -8 -16 -18 -23 -11 -7 -21 -19 -23 -26 -3 -10 -10
-8 -27 6 -12 11 -36 25 -52 32 -17 7 -30 16 -30 21 0 5 -11 14 -25 19 -14 5
-25 14 -25 20 0 17 23 53 48 73 12 10 22 23 22 28 0 10 59 69 69 69 3 0 22 14
41 30 19 16 41 30 48 30 6 0 12 4 12 8 0 4 24 16 53 27 28 10 54 22 57 27 4 4
53 16 110 25 58 10 107 20 110 24 3 4 40 10 82 14 73 6 76 8 60 24 -9 9 -30
23 -47 31 -29 15 -40 22 -80 58 -11 9 -38 26 -60 37 -22 11 -46 28 -53 38 -7
9 -17 15 -22 12 -5 -3 -12 1 -17 8 -4 7 -24 22 -43 33 -19 10 -43 27 -54 37
-11 9 -23 17 -28 17 -14 0 -9 29 10 50 58 67 44 65 120 18 37 -23 76 -50 86
-60z"/>
<path d="M10300 3601 c0 -4 -63 -14 -140 -21 -77 -8 -140 -17 -140 -20 0 -4
-81 -15 -180 -25 -99 -10 -180 -21 -180 -25 0 -4 -30 -10 -67 -14 -38 -4 -79
-8 -93 -10 -14 -2 -67 -6 -117 -11 -51 -4 -93 -11 -93 -14 0 -6 -96 -19 -292
-37 -38 -4 -68 -10 -68 -14 0 -4 -61 -13 -135 -20 -74 -7 -135 -16 -135 -20 0
-3 -82 -14 -182 -25 -101 -10 -185 -21 -188 -25 -3 -4 -86 -15 -185 -25 -99
-9 -182 -21 -185 -25 -3 -4 -61 -13 -130 -20 -69 -7 -129 -16 -135 -20 -5 -4
-89 -15 -185 -25 -96 -10 -177 -21 -180 -25 -3 -3 -86 -15 -185 -25 -99 -10
-182 -21 -185 -25 -3 -3 -47 -11 -98 -17 l-92 -10 -50 -51 c-33 -34 -50 -60
-50 -77 0 -14 -4 -25 -10 -25 -5 0 -10 -18 -10 -41 0 -29 3 -38 13 -33 10 6
10 4 0 -7 -16 -16 -17 -152 -3 -180 7 -13 7 -19 0 -19 -7 0 -10 -185 -10 -575
0 -344 4 -575 9 -575 5 0 12 -13 16 -30 5 -24 13 -31 42 -36 35 -7 113 10 113
24 0 5 20 16 45 26 25 11 45 22 45 26 0 4 19 15 43 26 23 10 46 24 50 31 5 8
12 11 16 9 4 -3 17 3 27 12 10 10 37 26 59 36 22 11 45 25 50 32 6 6 26 17 47
23 20 7 38 18 41 25 3 6 23 18 46 26 23 7 41 17 41 22 0 5 14 14 30 19 17 6
30 14 30 18 0 3 15 12 33 20 17 8 41 22 52 31 11 10 37 23 58 30 20 6 37 15
37 20 0 4 14 13 30 20 17 7 30 15 30 19 0 4 20 15 45 25 25 11 45 22 45 25 0
4 20 15 44 25 25 10 47 25 50 32 3 8 9 13 13 13 15 -3 73 23 73 32 0 6 14 15
30 20 17 6 30 14 30 18 0 4 20 15 45 25 25 11 45 22 45 27 0 4 20 15 44 24 25
10 47 23 50 30 2 7 18 16 35 20 17 4 31 10 31 15 0 5 18 16 40 26 22 10 40 21
40 24 0 3 20 14 45 24 25 11 45 22 45 27 0 4 20 15 45 25 25 9 45 20 45 24 0
4 15 14 33 21 17 7 41 21 51 31 11 10 25 18 32 18 7 0 19 6 26 13 7 7 32 22
56 32 23 10 42 22 42 25 0 3 16 12 35 20 19 8 35 17 35 20 0 4 19 15 43 26 23
10 51 27 61 36 11 10 25 18 31 18 7 0 22 9 34 20 13 10 38 24 57 30 19 7 34
15 34 20 0 5 16 14 35 21 19 7 35 16 35 19 0 4 19 15 43 26 23 10 51 27 61 36
11 10 25 18 32 18 7 0 19 6 26 13 7 6 27 19 43 27 17 8 36 20 43 27 7 6 28 17
47 24 19 7 35 16 35 19 0 4 19 15 43 26 23 10 51 27 61 36 11 10 25 18 31 18
7 0 22 9 35 20 13 11 34 23 47 26 13 4 23 10 23 14 0 4 20 16 45 27 25 10 45
21 45 24 0 3 19 14 43 25 23 10 51 27 61 36 11 10 26 18 33 18 7 0 13 3 13 8
0 4 20 16 45 27 25 11 45 22 45 26 0 3 19 14 43 25 23 10 48 24 55 31 7 7 17
13 22 13 5 0 15 6 22 13 7 6 31 21 53 32 22 11 42 22 45 25 3 3 24 14 47 25
24 11 43 23 43 26 0 3 19 14 43 25 44 19 66 40 67 62 0 8 -18 12 -60 12 -33 0
-60 -4 -60 -9z m-2628 -566 c5 -8 16 -15 24 -15 18 0 34 -40 34 -84 0 -34 -18
-97 -30 -106 -4 -3 -12 -15 -18 -27 -10 -19 -9 -20 8 -16 11 3 20 9 20 13 0 5
24 16 53 26 28 9 55 22 59 27 11 17 161 14 182 -3 51 -42 66 -61 66 -85 0 -14
6 -25 13 -25 7 0 8 -3 2 -8 -6 -4 -16 -34 -23 -67 -6 -33 -18 -65 -24 -70 -7
-6 -21 -25 -32 -44 -22 -39 -25 -43 -112 -133 -35 -38 -68 -68 -73 -68 -4 0
-23 -14 -42 -30 -57 -52 -63 -57 -81 -63 -10 -4 -18 -10 -18 -15 0 -5 -19 -17
-42 -28 -24 -10 -48 -24 -55 -30 -7 -6 -32 -18 -57 -25 -26 -7 -46 -17 -46
-20 0 -13 -113 -31 -162 -27 -74 8 -80 21 -29 66 24 20 63 56 87 80 41 40 47
42 101 42 58 0 134 16 143 30 3 4 20 15 38 24 17 9 32 20 32 24 0 4 16 16 35
26 19 11 35 22 35 25 0 3 16 24 35 46 19 22 35 45 35 52 0 7 4 13 9 13 5 0 12
18 16 40 6 35 3 43 -22 68 -15 16 -42 31 -58 35 -31 6 -126 -10 -135 -23 -3
-4 -20 -15 -37 -24 -18 -9 -33 -21 -33 -26 0 -6 -6 -10 -12 -10 -7 0 -28 -16
-47 -35 -18 -19 -36 -33 -40 -32 -3 1 -25 -17 -47 -40 -43 -45 -70 -54 -80
-28 -4 8 -12 15 -19 15 -7 0 -18 6 -24 14 -10 12 -8 18 9 33 12 10 66 62 121
116 87 85 99 101 99 131 0 41 -8 66 -22 66 -5 0 -17 7 -26 16 -12 13 -28 15
-71 11 -31 -3 -57 -11 -59 -16 -2 -5 -20 -15 -40 -22 -40 -13 -40 -13 -124
-93 -77 -74 -92 -105 -84 -173 5 -46 4 -54 -11 -60 -10 -3 -36 -24 -58 -47
-22 -22 -53 -48 -68 -56 -19 -9 -27 -20 -24 -32 5 -16 3 -16 -23 -3 -43 22
-56 65 -40 131 7 30 16 54 20 54 3 0 11 15 18 34 7 18 24 46 37 62 62 71 181
194 187 194 5 0 16 8 26 18 10 9 33 28 51 42 19 14 43 33 53 42 11 9 35 22 54
28 19 7 32 15 29 20 -2 4 24 16 59 26 36 10 63 22 60 26 -7 10 53 16 125 12
45 -2 68 -8 73 -19z m-882 1 c0 -2 -8 -10 -17 -17 -16 -13 -17 -12 -4 4 13 16
21 21 21 13z"/>
</g>
</svg>
